{
  "accessors": {
    "accessor_index_0": {
      "bufferView": "bufferView_1",
      "byteOffset": 0,
      "byteStride": 0,
      "componentType": 5123,
      "count": 18588,
      "type": "SCALAR",
      "min": [
        0
      ],
      "max": [
        3460
      ]
    },
    "accessor_position": {
      "bufferView": "bufferView_0",
      "byteOffset": 0,
      "byteStride": 0,
      "componentType": 5126,
      "count": 3118,
      "min": [
        -7.103569984436035,
        -0.1821727305650711,
        -10.915339469909668
      ],
      "max": [
        7.735129356384277,
        21.799009323120117,
        11.279484748840332
      ],
      "type": "VEC3"
    },
    "accessor_normal": {
      "bufferView": "bufferView_0",
      "byteOffset": 37416,
      "byteStride": 0,
      "componentType": 5126,
      "count": 3118,
      "type": "VEC3",
      "min": [
        -0.9997830390930176,
        -0.9999680519104004,
        -0.9985369443893433
      ],
      "max": [
        0.999664843082428,
        0.9997944831848145,
        0.9968433976173401
      ]
    }
  },
  "asset": {
    "generator": "OBJ2GLTF",
    "premultipliedAlpha": true,
    "profile": {
      "api": "WebGL",
      "version": "1.0"
    },
    "version": "1.0"
  },
  "buffers": {
    "buffer_0": {
      "type": "arraybuffer",
      "byteLength": 112008,
      "uri": "data:application/octet-stream;base64,"
    }
  },
  "bufferViews": {
    "bufferView_0": {
      "buffer": "buffer_0",
      "byteLength": 74832,
      "byteOffset": 0,
      "target": 34962
    },
    "bufferView_1": {
      "buffer": "buffer_0",
      "byteLength": 37176,
      "byteOffset": 74832,
      "target": 34963
    }
  },
  "images": {},
  "materials": {
    "material_czmDefaultMat": {
      "name": "czmDefaultMat",
      "extensions": {},
      "values": {
        "ambient": [
          0,
          0,
          0,
          1
        ],
        "diffuse": [
          0.5,
          0.5,
          0.5,
          1
        ],
        "emission": [
          0,
          0,
          0,
          1
        ],
        "specular": [
          0,
          0,
          0,
          1
        ],
        "shininess": 0,
        "transparency": 1
      },
      "technique": "technique0"
    }
  },
  "meshes": {
    "mesh_balloon-8": {
      "name": "balloon-8",
      "primitives": [
        {
          "attributes": {
            "POSITION": "accessor_position",
            "NORMAL": "accessor_normal"
          },
          "indices": "accessor_index_0",
          "material": "material_czmDefaultMat",
          "mode": 4
        }
      ]
    }
  },
  "nodes": {
    "rootNode": {
      "children": [],
      "meshes": [
        "mesh_balloon-8"
      ],
      "matrix": [
        1,
        0,
        0,
        0,
        0,
        1,
        0,
        0,
        0,
        0,
        1,
        0,
        0,
        0,
        0,
        1
      ]
    }
  },
  "samplers": {},
  "scene": "scene_balloon-8",
  "scenes": {
    "scene_balloon-8": {
      "nodes": [
        "rootNode"
      ]
    }
  },
  "textures": {},
  "extensionsUsed": [],
  "animations": {},
  "cameras": {},
  "techniques": {
    "technique0": {
      "attributes": {
        "a_position": "position",
        "a_normal": "normal"
      },
      "parameters": {
        "modelViewMatrix": {
          "semantic": "MODELVIEW",
          "type": 35676
        },
        "projectionMatrix": {
          "semantic": "PROJECTION",
          "type": 35676
        },
        "normalMatrix": {
          "semantic": "MODELVIEWINVERSETRANSPOSE",
          "type": 35675
        },
        "ambient": {
          "type": 35666
        },
        "diffuse": {
          "type": 35666
        },
        "emission": {
          "type": 35666
        },
        "specular": {
          "type": 35666
        },
        "shininess": {
          "type": 5126
        },
        "transparency": {
          "type": 5126
        },
        "position": {
          "semantic": "POSITION",
          "type": 35665
        },
        "normal": {
          "semantic": "NORMAL",
          "type": 35665
        }
      },
      "program": "program0",
      "states": {
        "enable": [
          2884,
          2929
        ]
      },
      "uniforms": {
        "u_modelViewMatrix": "modelViewMatrix",
        "u_projectionMatrix": "projectionMatrix",
        "u_normalMatrix": "normalMatrix",
        "u_ambient": "ambient",
        "u_diffuse": "diffuse",
        "u_emission": "emission",
        "u_specular": "specular",
        "u_shininess": "shininess",
        "u_transparency": "transparency"
      }
    }
  },
  "programs": {
    "program0": {
      "attributes": [
        "a_position",
        "a_normal"
      ],
      "fragmentShader": "fragmentShader0",
      "vertexShader": "vertexShader0"
    }
  },
  "shaders": {
    "vertexShader0": {
      "type": 35633,
      "uri": "data:text/plain;base64,"
    },
    "fragmentShader0": {
      "type": 35632,
      "uri": "data:text/plain;base64,"
    }
  },
  "skins": {},
  "extensions": {}
}
